<svg xmlns="http://www.w3.org/2000/svg" viewBox="0 0 640 512"><!--!Font Awesome Free 6.5.2 by @fontawesome - https://fontawesome.com License - https://fontawesome.com/license/free Copyright 2024 Fonticons, Inc.--><path d="M320 32c-17.7 0-32 14.3-32 32V96H192c-53 0-96 43-96 96V256h64v48c0 26.5 21.5 48 48 48H320c26.5 0 48-21.5 48-48V256h64V192c0-53-43-96-96-96H320V64c0-17.7-14.3-32-32-32zm0 192H192V192h128v32zM576 224a96 96 0 1 0 0 192 96 96 0 1 0 0-192zM96 224a96 96 0 1 0 0 192 96 96 0 1 0 0-192zM576 480c35.3 0 64-28.7 64-64s-28.7-64-64-64H512V288c0-17.7-14.3-32-32-32H416c-17.7 0-32 14.3-32 32v64H352c-17.7 0-32 14.3-32 32v64H96c-35.3 0-64-28.7-64-64s28.7-64-64-64V224H0c0-17.7-14.3-32-32-32s-32 14.3-32 32v64c0 70.7 57.3 128 128 128h288v32c0 17.7 14.3 32 32 32h64c17.7 0 32-14.3 32-32v-32h32z"/></svg>