<svg xmlns="http://www.w3.org/2000/svg" viewBox="0 0 512 512"><!--!Font Awesome Free 6.5.2 by @fontawesome - https://fontawesome.com License - https://fontawesome.com/license/free Copyright 2024 Fonticons, Inc.--><path d="M164.9 24.6c-7.7-18.6-28-28.5-47.4-23.2l-88 24C1.2 30.2-1.4 40.6 .3 49.9l67.5 138.2c-.5 1.1-1 2.2-1.6 3.4c-16.4 31.8-21.6 67.6-19.3 104c.2 2.3 .4 4.7 .7 7L54.6 372c14.2 29.1 36.7 51.6 65.9 65.9l67.9 33.1c2.3 .7 4.7 .9 7 .7c36.3-2.3 72.1-7.5 103.8-19.9c1.2-.5 2.3-1.1 3.4-1.6L461.3 499.7c9.3 1.7 19.7-1 25-10.7l24-88c5.3-19.4-4.6-39.7-23.2-47.4l-96-40c-16.3-6.8-35.2-2.1-46.3 11.6L304.7 368c-70.4-33.3-127.4-90.3-160.7-160.7L153.3 167.3c13.7-11.2 18.4-30 11.6-46.3l-40-96z"/></svg>