<svg xmlns="http://www.w3.org/2000/svg" xmlns:xlink="http://www.w3.org/1999/xlink" xmlns:inkscape="http://www.inkscape.org/namespaces/inkscape" version="1.1" width="1743.27" height="1080" viewBox="0 0 1743.27 1080">
<defs>
<clipPath id="clip_0">
<path transform="matrix(1,0,0,-1,0,1080)" d="M0 0H1743.27V1080H0Z"/>
</clipPath>
</defs>
<g clip-path="url(#clip_0)">
<path transform="matrix(1,0,0,-1,0,1080)" d="M1188.016 544.3237C1188.025 552.3717 1185.517 560.4297 1176.714 560.4397 1173.451 560.4437 1170.379 559.2687 1167.6 557.1297 1161.376 552.3367 1156.627 542.6927 1154.524 530.5167L1149.209 500.5667C1151.148 498.7887 1153.299 497.4297 1155.985 496.6777 1157.481 496.2587 1159.138 496.0217 1161.03 496.0197 1176.892 496.0027 1187.994 524.1847 1188.016 544.3237M1230.815 548.5537C1230.768 506.0157 1204.546 465.2687 1163.263 465.3137 1158.675 465.3197 1154.094 465.9357 1150.274 466.9527 1147.595 467.6657 1145.287 468.5737 1143.627 469.6127L1143.129 469.6137C1143.129 469.6137 1136.506 435.4017 1136.405 435.1067 1134.042 423.8557 1130.908 422.6917 1122.348 421.7607 1115.249 420.9707 1107.089 422.5577 1100.592 425.6507 1100.461 425.7137 1100.321 425.7657 1100.192 425.8297 1095.891 427.9447 1093.287 430.2297 1094.758 438.1437H1094.793C1094.813 438.3607 1123.165 584.3627 1123.339 584.8227 1124.559 590.7177 1126.454 593.6717 1131.536 594.6367 1133.77 595.0607 1138.785 595.0537 1141.855 594.6877 1148.255 593.9247 1153.256 591.9197 1156.231 590.0547 1159.489 588.0127 1161.131 583.8187 1160.33 579.3747L1159.761 576.4537C1164.003 582.0977 1168.027 585.6257 1173.674 588.7447 1180.107 592.2967 1187.143 594.1627 1194.109 594.1547 1220.037 594.1257 1230.842 572.9617 1230.815 548.5537M983.885 561.9757C987.955 565.3867 991.117 569.6287 992.647 574.7237 994.662 581.3697 994.746 584.6387 984.776 589.6977 978.541 592.7857 965.381 595.7057 950.788 595.2757 917.808 594.3047 896.183 575.7967 897.695 549.6657 898.538 535.0917 911.884 524.6287 925.916 517.4937 936.551 512.2677 940.284 508.8487 940.56 504.0817 940.836 499.3067 937.276 495.4307 928.97 495.1867 919.767 494.7107 910.079 497.2517 902.979 499.9797 897.159 502.8267 894.638 501.2427 892.425 498.4307 889.036 494.1147 886.735 489.1387 886.255 483.6317 885.671 477.1267 887.038 474.1267 894.23 471.0427 902.188 467.5957 914.483 465.2647 927.156 465.4287 961.405 466.1887 984.16 482.7117 982.502 511.3547 981.601 526.9317 966.494 537.3427 951.927 544.9687 943.382 548.9937 938.894 552.3827 938.676 556.1547 938.341 561.9327 943.699 565.1137 952.269 565.3657 959.076 565.5667 967.367 564.0007 972.191 562.5897 972.82 562.4057 973.95 562.0937 973.95 562.0937 980.607 559.5247 981.212 559.7417 983.885 561.9757M1426.499 497.3147C1424.813 501.1907 1422.437 503.2547 1417.803 502.6457 1415.284 502.3147 1409.934 500.8077 1407.721 502.7087 1405.96 504.2217 1404.714 506.2017 1404.602 509.1547 1404.513 511.5017 1406.012 518.5677 1406.757 522.3077L1414.475 562.0557 1432.397 562.0367C1434.621 562.0367 1439.217 564.5247 1440.301 569.7097 1441.756 576.6637 1442.28 579.9757 1442.629 583.4397 1443.123 588.3427 1438.147 592.1827 1433.209 592.1877L1420.34 592.2477C1420.34 592.2477 1424.407 612.3267 1424.406 612.9057 1425.312 619.5467 1422.841 621.7797 1418.716 623.5217 1412.164 626.2877 1404.662 627.6797 1398.378 627.4827 1389.987 627.2207 1386.656 625.4527 1384.354 614.4557L1380.03 592.2477 1371.93 592.2567C1368.104 592.2617 1364.723 589.5647 1363.984 585.8107 1363.323 582.4557 1362.313 577.5727 1361.337 572.3907 1360.738 569.2117 1359.57 562.6087 1369.193 562.1077L1374.265 562.1017 1365.233 516.2417C1363.48 508.0207 1362.6 500.2287 1362.845 495.1197 1363.659 478.1927 1374.291 466.8977 1396.714 466.8977 1406.181 466.8977 1412.912 469.2367 1418.189 471.8867 1426.945 476.2837 1427.996 478.3467 1428.469 485.0397 1428.672 487.9207 1428.231 493.3317 1426.499 497.3147M1489.449 589.9207C1483.507 592.8607 1476.814 594.1597 1469.717 594.1027 1459.091 594.0177 1456.9 591.3097 1455.191 583.9717 1455.109 583.6747 1440.549 481.4447 1440.549 481.4447 1439.517 474.2177 1442.68 472.2837 1447.058 470.2427 1453.007 467.4717 1461.813 466.0147 1469.014 466.9567 1476.584 467.9477 1480.278 469.2137 1481.894 480.4537L1495.702 577.5937C1496.335 582.6017 1494.619 587.3627 1489.449 589.9207M382.127 623.8727C385.398 628.7737 385.108 633.4927 382.417 638.2127 378.31 645.4007 372.711 651.4637 365.405 655.3117 355.88 660.3587 348.646 659.8867 342.866 649.5397 335.996 637.1597 328.58 625.0707 321.382 612.8357 314.875 601.7267 308.332 590.6537 301.134 578.4197 299.794 581.9607 292.482 615.6317 288.593 631.8597 287.647 635.8527 285.612 640.1367 282.776 643.0047 275.724 650.1207 266.709 654.4047 256.675 654.4767 244.97 654.5497 241.771 650.8827 242.862 640.7907 243.262 637.1597 243.734 633.5297 244.461 629.9357 248.823 608.5157 255.185 587.6767 263.946 567.6737 267.472 559.5777 272.125 551.8447 277.105 544.5477 279.105 541.6437 279.25 540.0457 277.869 537.1417 271.216 523.2007 264.418 509.3327 258.493 495.1007 253.077 482.1047 249.732 468.4897 250.459 454.1867 250.75 448.3777 253.367 443.8757 257.911 440.3907 264.782 435.1267 272.707 433.3477 280.995 434.9447 288.411 436.3607 294.772 439.6277 296.735 448.1957 306.914 492.8137 324.133 534.4497 348.683 573.2277 359.975 591.0657 370.857 607.0637 382.127 623.8727M1480.769 642.5267C1468.868 642.0467 1459.985 632.1357 1460.793 619.9887 1461.523 609.0257 1469.156 601.9307 1479.632 602.3527L1479.866 602.3627C1491.525 602.8327 1501.469 611.1137 1500.55 624.9297 1499.836 635.6497 1492.204 642.9877 1480.769 642.5267M620.194 595.0027C605.345 595.0197 590.981 588.0247 580.9 574.1997 579.649 583.7597 571.385 594.9837 554.012 595.0027 538.664 595.0197 525.096 588.4727 514.758 574.1407 514.758 574.1407 515.64 578.3527 515.938 579.7557 517.042 584.9487 514.887 589.2437 511.176 591.0827 505.757 593.7687 499.89 594.9807 493.593 594.9807 487.244 594.9807 482.076 594.4987 480.315 585.4287L460.781 485.4377C459.56 479.0107 460.335 476.6337 463.287 474.0887 467.594 470.3757 475.525 467.9397 481.912 467.1827 489.446 466.2887 497.553 467.6647 498.734 473.7337 499.868 479.5577 508.701 524.9257 508.701 524.9257 513.351 548.8067 522.986 561.9227 532.054 561.9127 537.593 561.9067 539.848 557.3777 539.84 550.8337 539.835 546.2997 539.074 541.2677 538.063 535.9867L527.941 484.6677C527.003 479.8517 527.289 476.4747 531.246 473.5567 535.558 470.3757 543.102 467.6867 549.979 467.1007 560.51 466.2027 565.085 468.8137 566.948 478.3817L575.995 524.8537C580.67 548.8617 589.191 561.8497 598.252 561.8397 604.04 561.8337 606.809 557.5527 606.803 551.5147 606.797 546.7317 606.036 541.4427 605.017 535.9127L595.093 485.1677C594.043 480.1937 594.428 476.6677 598.086 473.7397 602.542 470.1717 610.926 467.6497 617.208 467.0857 626.468 466.2537 632.114 468.5377 634.108 478.8247L646.055 540.1437C647.318 547.4427 648.591 557.7557 648.597 562.7887 648.618 581.9227 639.826 594.9817 620.194 595.0027M1282.429 543.3367C1305.313 542.0947 1315.27 546.3117 1315.545 554.8687L1315.553 555.1187C1315.715 560.1487 1312.309 564.0387 1305.776 564.2487 1292.18 564.6847 1284.27 553.3487 1282.429 543.3367M1338.99 481.2937C1339.256 477.6557 1338.636 474.7577 1332.47 472.7037 1318.146 467.9327 1304.952 466.0597 1290.289 466.5237 1255.069 467.6387 1237.829 487.6027 1238.864 519.8087 1240.068 557.2947 1266.496 595.9797 1311.527 594.5337 1336.943 593.7167 1353.806 577.8117 1353.312 554.6607 1352.277 522.4627 1323.942 510.5197 1277.698 513.5257 1278.099 510.4887 1279.264 507.4267 1281.698 504.8307 1285.852 500.9167 1292.566 498.0937 1301.874 497.8917 1310.956 497.6957 1318.466 499.5377 1322.968 500.7407 1328.71 502.2767 1330.571 501.0937 1334.065 496.5147 1336.198 493.7187 1338.543 487.4047 1338.99 481.2937M392.655 543.3367C415.54 542.0947 425.497 546.3117 425.772 554.8687L425.78 555.1187C425.941 560.1487 422.535 564.0387 416.002 564.2487 402.407 564.6847 394.497 553.3487 392.655 543.3367M449.217 481.2937C449.483 477.6557 448.862 474.7577 442.697 472.7037 428.373 467.9327 415.179 466.0597 400.515 466.5237 365.295 467.6387 348.056 487.6027 349.091 519.8087 350.295 557.2947 376.723 595.9797 421.754 594.5337 447.169 593.7167 464.033 577.8117 463.538 554.6607 462.504 522.4627 434.168 510.5197 387.925 513.5257 388.326 510.4887 389.49 507.4267 391.925 504.8307 396.078 500.9167 402.793 498.0937 412.101 497.8917 421.183 497.6957 428.693 499.5377 433.194 500.7407 438.937 502.2767 440.798 501.0937 444.291 496.5147 446.424 493.7187 448.77 487.4047 449.217 481.2937M698.413 543.3367C721.297 542.0947 731.254 546.3117 731.529 554.8687L731.537 555.1187C731.699 560.1487 728.293 564.0387 721.76 564.2487 708.164 564.6847 700.254 553.3487 698.413 543.3367M754.974 481.2937C755.24 477.6557 754.62 474.7577 748.454 472.7037 734.13 467.9327 720.936 466.0597 706.273 466.5237 671.053 467.6387 653.813 487.6027 654.848 519.8087 656.052 557.2947 682.48 595.9797 727.511 594.5337 752.927 593.7167 769.79 577.8117 769.296 554.6607 768.261 522.4627 739.925 510.5197 693.682 513.5257 694.083 510.4887 695.248 507.4267 697.682 504.8307 701.836 500.9167 708.55 498.0937 717.858 497.8917 726.94 497.6957 734.45 499.5377 738.952 500.7407 744.694 502.2767 746.555 501.0937 750.049 496.5147 752.182 493.7187 754.527 487.4047 754.974 481.2937M1035.373 543.3367C1058.258 542.0947 1068.214 546.3117 1068.49 554.8687L1068.497 555.1187C1068.659 560.1487 1065.253 564.0387 1058.72 564.2487 1045.124 564.6847 1037.215 553.3487 1035.373 543.3367M1091.934 481.2937C1092.201 477.6557 1091.58 474.7577 1085.414 472.7037 1071.09 467.9327 1057.897 466.0597 1043.233 466.5237 1008.013 467.6387 990.773 487.6027 991.808 519.8087 993.013 557.2947 1019.441 595.9797 1064.471 594.5337 1089.887 593.7167 1106.751 577.8117 1106.256 554.6607 1105.222 522.4627 1076.886 510.5197 1030.643 513.5257 1031.044 510.4887 1032.208 507.4267 1034.642 504.8307 1038.796 500.9167 1045.511 498.0937 1054.818 497.8917 1063.901 497.6957 1071.41 499.5377 1075.912 500.7407 1081.654 502.2767 1083.516 501.0937 1087.009 496.5147 1089.142 493.7187 1091.487 487.4047 1091.934 481.2937M851.457 535.6717C851.457 535.6717 872.14 489.1847 875.255 482.3387 877.873 476.5837 875.378 472.7517 867.981 470.0787 860.934 467.5317 850.224 466.1617 842.835 467.5227 838.633 468.3017 836.256 470.3837 834.731 474.2707L820.358 513.0247 811.797 505.5387C811.797 505.5387 807.788 484.7257 806.723 479.4407 804.608 468.9467 800.834 467.6507 792.88 467.0117 786.243 466.4787 778.408 467.7057 771.824 470.8697 766.748 473.3087 763.979 476.0487 766.124 484.6307L795.602 636.0387C797.388 645.2077 798.871 649.1727 812.008 648.7757 819.437 648.5507 827.632 646.4327 832.224 643.1817 836.675 640.0537 836.949 634.7557 836.257 631.1337 832.509 611.5387 820.772 551.5987 820.772 551.5987 820.772 551.5987 850.124 580.5837 855.703 585.8457 861.073 590.9097 864.985 593.9127 868.812 594.0357 875.421 594.2487 883.646 591.5437 888.841 587.5197 895.633 582.2837 896.566 575.4457 891.45 570.6987Z" fill="#fa0050"/>
</g>
</svg>
